<svg width="1080" height="1013" viewBox="0 0 1080 1013" fill="none" xmlns="http://www.w3.org/2000/svg">
<path d="M422.194 789.878L347.337 924.417C309.367 975.411 221.6 1049.3 102.698 988.973C-16.2051 928.648 -13.3844 796.388 19.7044 745.936L379.884 100.911C395.614 70.5312 449.641 7.9274 539.903 0.549479C630.165 -6.82844 681.48 61.8513 705.889 100.911L1070.41 753.531C1085.96 793.856 1093.95 893.928 1001.52 971.614C909.087 1049.3 792.68 1001.45 766.643 959.136L647.848 764.923C640.435 752.446 639.712 726.189 696.125 720.981C752.539 715.773 872.237 703.26 925.035 697.654L696.125 675.412C647.848 674.327 590.784 660.222 722.705 523.514L624.524 587.528C600.656 601.09 578.784 615.738 566.483 537.618C559.25 491.687 543.809 380.404 539.903 302.719C536.829 383.189 521.46 544.128 513.324 565.828C503.567 591.848 506.814 622.247 422.194 565.828C406.221 554.907 375.497 533.171 368.323 525.495C392.253 558.172 433.13 621.982 437.382 640.692C440.094 652.627 434.67 677.365 376.087 680.837L152.602 699.282C233.787 704.887 394.53 720.981 409.175 728.576C428.703 734.544 448.231 741.054 422.194 789.878Z" fill="white"/>
</svg>
